<?xml version="1.0" encoding="UTF-8" standalone="no"?>
<svg
   xmlns:dc="http://purl.org/dc/elements/1.1/"
   xmlns:cc="http://creativecommons.org/ns#"
   xmlns:rdf="http://www.w3.org/1999/02/22-rdf-syntax-ns#"
   xmlns:svg="http://www.w3.org/2000/svg"
   xmlns="http://www.w3.org/2000/svg"
   id="svg8"
   version="1.1"
   viewBox="0 0 132.29166 132.29167"
   height="500"
   width="500">
  <defs
     id="defs2" />
  <metadata
     id="metadata5">
    <rdf:RDF>
      <cc:Work
         rdf:about="">
        <dc:format>image/svg+xml</dc:format>
        <dc:type
           rdf:resource="http://purl.org/dc/dcmitype/StillImage" />
        <dc:title></dc:title>
      </cc:Work>
    </rdf:RDF>
  </metadata>
  <g
     style="display:inline"
     transform="translate(0,5.2916667)"
     id="layer4">
    <path
       id="path1524"
       transform="matrix(0.26458333,0,0,0.26458333,0,-5.2916667)"
       d="m 251.4707,102.00586 c -48.26435,0.13967 -96.28583,10.38033 -130.78906,30.30078 -44.116883,25.47089 -63.029586,29.43164 -90.15039,29.43164 v 58.41992 h 39.671875 v 55.31055 c 0,26.14647 -9.374238,29.7373 -34.609375,34.94336 l -2.054688,75.19922 C 95.365314,372.85647 142.63281,371.57223 142.63281,275.46875 V 220.1582 c 22.88086,-13.21027 44.6591,-22.77353 66.01367,-28.60937 a 79.198273,66.441506 0 0 0 -25.18554,48.47461 79.198273,66.441506 0 0 0 79.19922,66.4414 79.198273,66.441506 0 0 0 79.19726,-66.4414 79.198273,66.441506 0 0 0 -19.66015,-43.73438 c 16.44707,5.76717 33.33043,13.70483 50.93554,23.86914 V 431.10547 L 436.31641,331.0957 V 220.1582 h 39.66797 v -58.41992 c -30.42996,0 -57.67343,-9.45644 -92.27149,-29.43164 C 348.242,111.82751 299.73506,101.86619 251.4707,102.00586 Z m 11.18946,112.0625 a 25.955932,25.955932 0 0 1 25.95507,25.95508 25.955932,25.955932 0 0 1 -25.95507,25.95898 25.955932,25.955932 0 0 1 -25.95704,-25.95898 25.955932,25.955932 0 0 1 25.95704,-25.95508 z"
       style="fill:#ffffff;fill-opacity:1;stroke:none;stroke-width:1.0630641;stroke-opacity:1" />
  </g>
  <g
     style="display:inline"
     id="layer3" />
</svg>
