<?xml version="1.0" encoding="UTF-8" standalone="no"?>
<!-- Created with Inkscape (http://www.inkscape.org/) -->

<svg
   xmlns:dc="http://purl.org/dc/elements/1.1/"
   xmlns:cc="http://creativecommons.org/ns#"
   xmlns:rdf="http://www.w3.org/1999/02/22-rdf-syntax-ns#"
   xmlns:svg="http://www.w3.org/2000/svg"
   xmlns="http://www.w3.org/2000/svg"
   xmlns:sodipodi="http://sodipodi.sourceforge.net/DTD/sodipodi-0.dtd"
   xmlns:inkscape="http://www.inkscape.org/namespaces/inkscape"
   width="500"
   height="500"
   viewBox="0 0 132.29166 132.29167"
   version="1.1"
   id="svg8"
   inkscape:version="0.92.2 (5c3e80d, 2017-08-06)"
   sodipodi:docname="picto_eye.svg">
  <defs
     id="defs2" />
  <sodipodi:namedview
     id="base"
     pagecolor="#00cc66"
     bordercolor="#666666"
     borderopacity="1.0"
     inkscape:pageopacity="1"
     inkscape:pageshadow="2"
     inkscape:zoom="0.70710678"
     inkscape:cx="166.78833"
     inkscape:cy="94.824688"
     inkscape:document-units="mm"
     inkscape:current-layer="layer4"
     showgrid="false"
     units="px"
     inkscape:pagecheckerboard="true"
     inkscape:snap-text-baseline="true"
     inkscape:window-width="1600"
     inkscape:window-height="837"
     inkscape:window-x="-8"
     inkscape:window-y="-8"
     inkscape:window-maximized="1" />
  <metadata
     id="metadata5">
    <rdf:RDF>
      <cc:Work
         rdf:about="">
        <dc:format>image/svg+xml</dc:format>
        <dc:type
           rdf:resource="http://purl.org/dc/dcmitype/StillImage" />
        <dc:title></dc:title>
      </cc:Work>
    </rdf:RDF>
  </metadata>
  <g
     inkscape:groupmode="layer"
     id="layer4"
     inkscape:label="eyeball"
     transform="translate(0,5.2916667)">
    <path
       style="fill:#ccffff;fill-opacity:1;stroke:none;stroke-width:0.28126904;stroke-opacity:1"
       d="M 69.495415,40.635826 A 20.954543,17.579315 0 0 0 48.540872,58.214652 20.954543,17.579315 0 0 0 69.495415,75.794073 20.954543,17.579315 0 0 0 90.449958,58.214652 20.954543,17.579315 0 0 0 69.495415,40.635826 Z m 0,10.711481 a 6.867507,6.867507 0 0 1 6.867345,6.867345 6.867507,6.867507 0 0 1 -6.867345,6.867942 6.867507,6.867507 0 0 1 -6.867943,-6.867942 6.867507,6.867507 0 0 1 6.867943,-6.867345 z"
       id="path1524"
       inkscape:connector-curvature="0" />
  </g>
  <g
     inkscape:groupmode="layer"
     id="layer3"
     inkscape:label="eye_borders"
     style="display:inline">
    <path
       style="fill:#ccffff;fill-opacity:1;stroke:none;stroke-width:0.62710917;stroke-opacity:1"
       d="M 8.0780853,42.793121 V 58.25 H 18.574383 v 14.634484 c 0,6.91792 -2.48011,7.867846 -9.1569067,9.245282 L 8.8737693,102.02619 C 25.231965,98.651466 37.738209,98.311862 37.738209,72.884484 V 58.25 c 21.332006,-12.31604 39.042285,-12.669432 60.986384,0 v 55.81348 L 115.44198,87.602617 V 58.25 H 125.9375 V 42.793121 c -8.05126,0 -15.25939,-2.501984 -24.41346,-7.787089 -18.770012,-10.836871 -51.335804,-10.541236 -69.593761,0 -11.672592,6.739174 -16.676481,7.787089 -23.8521937,7.787089 z"
       id="rect4504"
       inkscape:connector-curvature="0"
       sodipodi:nodetypes="cccsccscccccccccc" />
  </g>
</svg>
